<svg xmlns="http://www.w3.org/2000/svg" viewBox="0 0 1200 630" width="1200" height="630">
  <defs>
    <radialGradient id="top" cx="0.82" cy="-0.1" r="0.7">
      <stop offset="0" stop-color="#7EABFF" stop-opacity="0.16"/>
      <stop offset="1" stop-color="#7EABFF" stop-opacity="0"/>
    </radialGradient>
    <radialGradient id="floor" cx="0.5" cy="1.05" r="0.62">
      <stop offset="0" stop-color="#2F7BFF" stop-opacity="0.30"/>
      <stop offset="1" stop-color="#2F7BFF" stop-opacity="0"/>
    </radialGradient>
    <linearGradient id="bar" x1="0" y1="0" x2="1" y2="0">
      <stop offset="0" stop-color="#7EABFF" stop-opacity="0"/>
      <stop offset="0.5" stop-color="#7EABFF" stop-opacity="0.9"/>
      <stop offset="1" stop-color="#7EABFF" stop-opacity="0"/>
    </linearGradient>
    <linearGradient id="fade" x1="0" y1="0" x2="0" y2="1">
      <stop offset="0" stop-color="#fff" stop-opacity="0"/>
      <stop offset="1" stop-color="#fff" stop-opacity="1"/>
    </linearGradient>
    <mask id="roadmask"><rect x="0" y="452" width="1200" height="178" fill="url(#fade)"/></mask>
    <filter id="bloom" x="-10%" y="-400%" width="120%" height="900%"><feGaussianBlur stdDeviation="7"/></filter>
  </defs>
  <rect width="1200" height="630" fill="#07080A"/>
  <rect width="1200" height="630" fill="url(#top)"/>
  <rect width="1200" height="630" fill="url(#floor)"/>
  <g mask="url(#roadmask)" stroke="#FFFFFF" stroke-opacity="0.07" stroke-width="1.2"><line x1="348" y1="452" x2="-1500" y2="630" /><line x1="366" y1="452" x2="-1350" y2="630" /><line x1="384" y1="452" x2="-1200" y2="630" /><line x1="402" y1="452" x2="-1050" y2="630" /><line x1="420" y1="452" x2="-900" y2="630" /><line x1="438" y1="452" x2="-750" y2="630" /><line x1="456" y1="452" x2="-600" y2="630" /><line x1="474" y1="452" x2="-450" y2="630" /><line x1="492" y1="452" x2="-300" y2="630" /><line x1="510" y1="452" x2="-150" y2="630" /><line x1="528" y1="452" x2="0" y2="630" /><line x1="546" y1="452" x2="150" y2="630" /><line x1="564" y1="452" x2="300" y2="630" /><line x1="582" y1="452" x2="450" y2="630" /><line x1="600" y1="452" x2="600" y2="630" /><line x1="618" y1="452" x2="750" y2="630" /><line x1="636" y1="452" x2="900" y2="630" /><line x1="654" y1="452" x2="1050" y2="630" /><line x1="672" y1="452" x2="1200" y2="630" /><line x1="690" y1="452" x2="1350" y2="630" /><line x1="708" y1="452" x2="1500" y2="630" /><line x1="726" y1="452" x2="1650" y2="630" /><line x1="744" y1="452" x2="1800" y2="630" /><line x1="762" y1="452" x2="1950" y2="630" /><line x1="780" y1="452" x2="2100" y2="630" /><line x1="798" y1="452" x2="2250" y2="630" /><line x1="816" y1="452" x2="2400" y2="630" /><line x1="834" y1="452" x2="2550" y2="630" /><line x1="852" y1="452" x2="2700" y2="630" /><line x1="0" y1="458.0" x2="1200" y2="458.0" /><line x1="0" y1="465.3" x2="1200" y2="465.3" /><line x1="0" y1="475.8" x2="1200" y2="475.8" /><line x1="0" y1="491.0" x2="1200" y2="491.0" /><line x1="0" y1="513.1" x2="1200" y2="513.1" /><line x1="0" y1="545.2" x2="1200" y2="545.2" /><line x1="0" y1="591.6" x2="1200" y2="591.6" /></g>
  <rect x="120" y="448" width="960" height="8" fill="#2F7BFF" opacity="0.55" filter="url(#bloom)"/>
  <rect x="80" y="451.25" width="1040" height="1.5" fill="url(#bar)"/>
  <svg x="338.93" y="196" width="522.13" height="176" viewBox="0 0 445 150">
    <g transform="translate(28.42 0) matrix(1 0 -0.21256 1 0 0)">
      <path fill="#F2F4F7" fill-rule="evenodd" d="M34 50H76V0H100V150H34A34 34 0 0 1 0 116V84A34 34 0 0 1 34 50ZM34 74H66A10 10 0 0 1 76 84V116A10 10 0 0 1 66 126H34A10 10 0 0 1 24 116V84A10 10 0 0 1 34 74ZM116 150V84A34 34 0 0 1 150 50H172V74H150A10 10 0 0 0 140 84V150ZM190 50H214V150H190ZM226 50L251.51 50L276 118.03L300.49 50L326 50L290 150L262 150ZM422.05 137.85A34 34 0 0 1 396 150H364A34 34 0 0 1 330 116V84A34 34 0 0 1 364 50H396A34 34 0 0 1 430 84V110H354V116A10 10 0 0 0 364 126H396A10 10 0 0 0 403.66 122.43ZM364 74H396A10 10 0 0 1 406 84V90H354V84A10 10 0 0 1 364 74Z"/>
      <path fill="#2F7BFF" d="M185 6H219V30H185Z"/>
    </g>
  </svg>
</svg>
